<svg width="50" height="49" viewBox="0 0 50 49" fill="none" xmlns="http://www.w3.org/2000/svg">
<rect x="0.5" width="49" height="49" rx="24.5" fill="#999999" fill-opacity="0.21"/>
<path d="M25.5 33.5C27.31 33.5 29.045 33.321 30.653 32.993C32.663 32.583 33.667 32.379 34.583 31.201C35.5 30.022 35.5 28.669 35.5 25.963V24.037C35.5 21.331 35.5 19.977 34.583 18.799C33.667 17.621 32.663 17.416 30.653 17.007C28.9565 16.667 27.2303 16.4972 25.5 16.5C23.69 16.5 21.955 16.679 20.347 17.007C18.337 17.417 17.333 17.621 16.417 18.799C15.5 19.978 15.5 21.331 15.5 24.037V25.963C15.5 28.669 15.5 30.023 16.417 31.201C17.333 32.379 18.337 32.584 20.347 32.993C21.955 33.321 23.69 33.5 25.5 33.5Z" stroke="#425862" stroke-width="2" stroke-linecap="round" stroke-linejoin="round"/>
<path d="M29.462 25.3128C29.314 25.9188 28.524 26.3528 26.945 27.2238C25.227 28.1708 24.368 28.6438 23.673 28.4608C23.4414 28.401 23.225 28.293 23.038 28.1438C22.5 27.7088 22.5 26.8058 22.5 24.9998C22.5 23.1938 22.5 22.2908 23.038 21.8558C23.22 21.7088 23.438 21.5998 23.673 21.5388C24.368 21.3558 25.227 21.8288 26.945 22.7758C28.525 23.6458 29.314 24.0808 29.462 24.6868C29.512 24.8928 29.512 25.1068 29.462 25.3128Z" stroke="#425862" stroke-width="2" stroke-linecap="round" stroke-linejoin="round"/>
</svg>
