<svg width="15" height="17" viewBox="0 0 15 17" fill="none" xmlns="http://www.w3.org/2000/svg">
<path d="M0.824219 15.1084V1.93335C0.824219 1.49814 0.9685 1.15045 1.25706 0.890267C1.54444 0.630089 1.88031 0.5 2.26466 0.5C2.38529 0.5 2.51124 0.516557 2.64251 0.54967C2.7726 0.581601 2.89737 0.630681 3.01681 0.696908L13.382 7.31904C13.6019 7.47278 13.7675 7.64899 13.8787 7.84768C13.9886 8.04518 14.0436 8.26928 14.0436 8.52C14.0436 8.77072 13.9886 8.99483 13.8787 9.19232C13.7687 9.38982 13.6031 9.56604 13.382 9.72096L3.01681 16.3431C2.89737 16.4081 2.77142 16.4572 2.63896 16.4903C2.50651 16.5234 2.38056 16.54 2.26111 16.54C1.87558 16.54 1.53971 16.4099 1.25351 16.1497C0.967316 15.8896 0.824219 15.5425 0.824219 15.1084Z" fill="#4B4B4B"/>
</svg>
